# xmcd CD database file
#
# Track frame offsets:
#	150
#	22180
#	48917
#	69787
#	91576
#	111983
#	132934
#	155333
#	175602
#	197615
#
# Disc length: 3098 seconds
#
# Revision: 0
# Processed by: cddbd v1.5.2PL0 Copyright (c) Steve Scherf et al.
# Submitted via: CDex 1.51
#
DISCID=760c180a
DTITLE=Sweet Angel - Another Man's Meat On My Plate
DYEAR=1900
DGENRE=Blues
TTITLE0=I Must Be Crazy (Radio Version)
TTITLE1=Another Man's Meat On My Plate
TTITLE2=I Got Love For You
TTITLE3=Easy Loving You
TTITLE4=Mike's Place
TTITLE5=Right Street, Wrong Way (Radio Version)
TTITLE6=Please Come Home
TTITLE7=Mike's Place Instrumental
TTITLE8=I Must Be Crazy (Club Remix)
TTITLE9=Right Street, Wrong Way (Extended Version)
EXTD=
EXTT0=
EXTT1=
EXTT2=
EXTT3=
EXTT4=
EXTT5=
EXTT6=
EXTT7=
EXTT8=
EXTT9=
PLAYORDER=
